# xmcd
#
# Track frame offsets:
#	150
#	26850
#	43345
#	68210
#	96747
#	121777
#	148007
#	178280
#	195132
#	233415
#
# Disc length: 3389 seconds
#
# Revision: 1
# Processed by: cddbd v1.5.2PL0 Copyright (c) Steve Scherf et al.
# Submitted via: EasyCDDAExtractor 16.0.6.1
#
DISCID=8e0d3b0a
DTITLE=Various Artist - Hung ca Nha Viet Nam
DYEAR=1997
DGENRE=Country
TTITLE0=Kim Tuoc, Vu Anh - Hoi nghi Dien Hong
TTITLE1=Mai Huong - Quanh lua hong
TTITLE2=Quynh Giao - Ben bo dai duong
TTITLE3=Vu Anh - Dem Me Linh
TTITLE4=Quynh Giao, Duy Quang, Quoc Anh, Mai Ngoc Khanh - Bach Dang giang
TTITLE5=Kim Tuoc - Giac mo hoi huong
TTITLE6=Quoc Anh - Khuc tinh ca hang hang lop lop
TTITLE7=Kim Tuoc, Quynh Giao, Quoc Anh, Mai Ngoc Khanh - Nha Viet Nam
TTITLE8=Mai Ngoc Khanh - Tinh ca
TTITLE9=Quynh Giao, Vu Anh, Mai Huong - Khong quan Viet Nam
EXTD=
EXTT0=
EXTT1=
EXTT2=
EXTT3=
EXTT4=
EXTT5=
EXTT6=
EXTT7=
EXTT8=
EXTT9=
PLAYORDER=
